<?xml version="1.0" standalone="no"?>
<!DOCTYPE svg PUBLIC "-//W3C//DTD SVG 20010904//EN"
 "http://www.w3.org/TR/2001/REC-SVG-20010904/DTD/svg10.dtd">
<svg version="1.0" xmlns="http://www.w3.org/2000/svg"
 width="512.000000pt" height="512.000000pt" viewBox="0 0 512.000000 512.000000"
 preserveAspectRatio="xMidYMid meet">
<metadata>
Created by potrace 1.15, written by Peter Selinger 2001-2017
</metadata>
<g transform="translate(0.000000,512.000000) scale(0.100000,-0.100000)"
fill="#000000" stroke="none">
<path d="M0 2560 l0 -2560 2560 0 2560 0 0 2560 0 2560 -2560 0 -2560 0 0
-2560z m2833 1218 c-4 -7 -323 -530 -710 -1163 l-702 -1150 -296 -3 c-163 -1
-294 1 -292 5 66 107 1157 1988 1157 1994 0 6 -62 8 -152 7 l-151 -3 -56 -152
-56 -153 -294 0 c-230 0 -292 3 -289 13 2 6 54 148 114 314 l109 303 813 0
c648 0 812 -3 805 -12z m1495 -106 l123 -117 -129 -355 c-72 -195 -133 -362
-136 -370 -4 -9 -67 -46 -142 -83 l-135 -68 28 -33 c15 -19 50 -60 78 -91 l49
-57 -27 -76 c-15 -43 -83 -228 -150 -412 l-123 -335 -183 -107 -183 -108 -502
0 -503 0 -115 116 -114 116 143 391 c78 216 147 402 152 413 5 12 69 59 143
104 73 46 136 86 141 90 4 4 -31 37 -78 73 l-85 67 32 87 c17 49 77 214 134
368 l102 280 193 112 194 112 485 0 485 0 123 -117z"/>
<path d="M1277 3703 c-7 -11 -167 -449 -167 -457 0 -3 91 -6 203 -6 l202 0 55
153 55 152 258 3 c141 1 257 0 257 -4 0 -3 -261 -453 -580 -1000 -319 -546
-580 -996 -580 -999 0 -3 87 -5 194 -5 l193 0 649 1063 c356 584 654 1072 662
1085 l14 22 -705 0 c-388 0 -708 -3 -710 -7z"/>
<path d="M3100 3614 c-91 -52 -170 -100 -176 -107 -10 -10 -228 -599 -236
-636 -2 -8 42 -49 97 -92 55 -44 100 -84 100 -91 0 -6 -79 -60 -175 -120
l-175 -109 -137 -372 -136 -372 86 -87 87 -88 464 0 465 0 166 96 165 97 119
326 c66 179 127 347 137 372 l18 46 -100 113 c-55 62 -99 114 -97 115 2 2 79
41 172 87 l169 84 119 324 118 324 -92 93 -93 93 -450 -1 -450 -1 -165 -94z
m810 -71 c1 -5 -63 -185 -142 -400 l-143 -393 -272 0 c-150 0 -273 2 -273 4 0
4 239 662 281 774 l9 22 270 0 c148 0 270 -3 270 -7z m-371 -1027 c-17 -46
-90 -248 -163 -448 l-133 -363 -272 -3 c-163 -1 -271 1 -271 7 0 5 68 195 151
423 83 227 156 425 161 441 l10 27 274 0 274 0 -31 -84z"/>
<path d="M3425 3458 c-3 -7 -54 -149 -115 -315 -60 -167 -110 -305 -110 -308
0 -3 81 -5 181 -5 l180 0 13 33 c30 72 216 586 216 596 0 17 -359 15 -365 -1z"/>
<path d="M2951 2160 c-72 -198 -131 -365 -131 -370 0 -7 64 -9 181 -8 l181 3
134 365 c73 201 134 366 134 368 0 1 -83 2 -184 2 l-183 0 -132 -360z"/>
</g>
</svg>
